<?xml version="1.0" encoding="UTF-8"?>
<!--Generator: Apple Native CoreSVG 175.5-->
<!DOCTYPE svg
PUBLIC "-//W3C//DTD SVG 1.1//EN"
       "http://www.w3.org/Graphics/SVG/1.1/DTD/svg11.dtd">
<svg version="1.1" xmlns="http://www.w3.org/2000/svg" xmlns:xlink="http://www.w3.org/1999/xlink" width="3300" height="2200">
 <!--glyph: "uni10104E.medium", point size: 100.0, font version: "18.0d12e2", template writer version: "101"-->
 <g id="Notes">
  <rect height="2200" id="artboard" style="fill:white;opacity:1" width="3300" x="0" y="0"/>
  <line style="fill:none;stroke:black;opacity:1;stroke-width:0.5;" x1="263" x2="3036" y1="292" y2="292"/>
  <text style="stroke:none;fill:black;font-family:sans-serif;font-size:13;font-weight:bold;" transform="matrix(1 0 0 1 263 322)">Weight/Scale Variations</text>
  <text style="stroke:none;fill:black;font-family:sans-serif;font-size:13;text-anchor:middle;" transform="matrix(1 0 0 1 559.711 322)">Ultralight</text>
  <text style="stroke:none;fill:black;font-family:sans-serif;font-size:13;text-anchor:middle;" transform="matrix(1 0 0 1 856.422 322)">Thin</text>
  <text style="stroke:none;fill:black;font-family:sans-serif;font-size:13;text-anchor:middle;" transform="matrix(1 0 0 1 1153.13 322)">Light</text>
  <text style="stroke:none;fill:black;font-family:sans-serif;font-size:13;text-anchor:middle;" transform="matrix(1 0 0 1 1449.84 322)">Regular</text>
  <text style="stroke:none;fill:black;font-family:sans-serif;font-size:13;text-anchor:middle;" transform="matrix(1 0 0 1 1746.56 322)">Medium</text>
  <text style="stroke:none;fill:black;font-family:sans-serif;font-size:13;text-anchor:middle;" transform="matrix(1 0 0 1 2043.27 322)">Semibold</text>
  <text style="stroke:none;fill:black;font-family:sans-serif;font-size:13;text-anchor:middle;" transform="matrix(1 0 0 1 2339.98 322)">Bold</text>
  <text style="stroke:none;fill:black;font-family:sans-serif;font-size:13;text-anchor:middle;" transform="matrix(1 0 0 1 2636.69 322)">Heavy</text>
  <text style="stroke:none;fill:black;font-family:sans-serif;font-size:13;text-anchor:middle;" transform="matrix(1 0 0 1 2933.4 322)">Black</text>
  <line style="fill:none;stroke:black;opacity:1;stroke-width:0.5;" x1="263" x2="3036" y1="1903" y2="1903"/>
  <g transform="matrix(1 0 0 1 263 1933)">
   <path d="M9.24805 0.830078C13.5547 0.830078 17.1387-2.74414 17.1387-7.05078C17.1387-11.3574 13.5449-14.9316 9.23828-14.9316C4.94141-14.9316 1.36719-11.3574 1.36719-7.05078C1.36719-2.74414 4.95117 0.830078 9.24805 0.830078ZM9.24805-0.654297C5.70312-0.654297 2.87109-3.49609 2.87109-7.05078C2.87109-10.6055 5.69336-13.4473 9.23828-13.4473C12.793-13.4473 15.6445-10.6055 15.6445-7.05078C15.6445-3.49609 12.8027-0.654297 9.24805-0.654297ZM5.6543-7.05078C5.6543-6.62109 5.95703-6.32812 6.40625-6.32812L8.50586-6.32812L8.50586-4.20898C8.50586-3.76953 8.79883-3.4668 9.22852-3.4668C9.67773-3.4668 9.9707-3.76953 9.9707-4.20898L9.9707-6.32812L12.0898-6.32812C12.5293-6.32812 12.832-6.62109 12.832-7.05078C12.832-7.49023 12.5293-7.79297 12.0898-7.79297L9.9707-7.79297L9.9707-9.90234C9.9707-10.3516 9.67773-10.6543 9.22852-10.6543C8.79883-10.6543 8.50586-10.3516 8.50586-9.90234L8.50586-7.79297L6.40625-7.79297C5.95703-7.79297 5.6543-7.49023 5.6543-7.05078Z"/>
  </g>
  <g transform="matrix(1 0 0 1 281.867 1933)">
   <path d="M11.709 2.91016C17.1582 2.91016 21.6699-1.61133 21.6699-7.05078C21.6699-12.5 17.1484-17.0117 11.6992-17.0117C6.25977-17.0117 1.74805-12.5 1.74805-7.05078C1.74805-1.61133 6.26953 2.91016 11.709 2.91016ZM11.709 1.25C7.09961 1.25 3.41797-2.44141 3.41797-7.05078C3.41797-11.6602 7.08984-15.3516 11.6992-15.3516C16.3086-15.3516 20.0098-11.6602 20.0098-7.05078C20.0098-2.44141 16.3184 1.25 11.709 1.25ZM7.17773-7.05078C7.17773-6.57227 7.50977-6.25 8.00781-6.25L10.8789-6.25L10.8789-3.36914C10.8789-2.88086 11.2109-2.53906 11.6895-2.53906C12.1777-2.53906 12.5195-2.87109 12.5195-3.36914L12.5195-6.25L15.4004-6.25C15.8887-6.25 16.2305-6.57227 16.2305-7.05078C16.2305-7.53906 15.8887-7.88086 15.4004-7.88086L12.5195-7.88086L12.5195-10.752C12.5195-11.25 12.1777-11.5918 11.6895-11.5918C11.2109-11.5918 10.8789-11.25 10.8789-10.752L10.8789-7.88086L8.00781-7.88086C7.50977-7.88086 7.17773-7.53906 7.17773-7.05078Z"/>
  </g>
  <g transform="matrix(1 0 0 1 305.646 1933)">
   <path d="M14.9707 5.66406C21.9336 5.66406 27.6953-0.0976562 27.6953-7.05078C27.6953-14.0137 21.9238-19.7754 14.9609-19.7754C8.00781-19.7754 2.25586-14.0137 2.25586-7.05078C2.25586-0.0976562 8.01758 5.66406 14.9707 5.66406ZM14.9707 3.84766C8.93555 3.84766 4.08203-1.01562 4.08203-7.05078C4.08203-13.0957 8.92578-17.9492 14.9609-17.9492C21.0059-17.9492 25.8691-13.0957 25.8691-7.05078C25.8691-1.01562 21.0156 3.84766 14.9707 3.84766ZM9.19922-7.05078C9.19922-6.5332 9.57031-6.17188 10.1172-6.17188L14.0625-6.17188L14.0625-2.2168C14.0625-1.67969 14.4336-1.29883 14.9512-1.29883C15.4883-1.29883 15.8594-1.66992 15.8594-2.2168L15.8594-6.17188L19.8145-6.17188C20.3516-6.17188 20.7324-6.5332 20.7324-7.05078C20.7324-7.59766 20.3613-7.96875 19.8145-7.96875L15.8594-7.96875L15.8594-11.9141C15.8594-12.4609 15.4883-12.8418 14.9512-12.8418C14.4336-12.8418 14.0625-12.4609 14.0625-11.9141L14.0625-7.96875L10.1172-7.96875C9.57031-7.96875 9.19922-7.59766 9.19922-7.05078Z"/>
  </g>
  <text style="stroke:none;fill:black;font-family:sans-serif;font-size:13;font-weight:bold;" transform="matrix(1 0 0 1 263 1953)">Design Variations</text>
  <text style="stroke:none;fill:black;font-family:sans-serif;font-size:13;" transform="matrix(1 0 0 1 263 1971)">Symbols are supported in up to nine weights and three scales.</text>
  <text style="stroke:none;fill:black;font-family:sans-serif;font-size:13;" transform="matrix(1 0 0 1 263 1989)">For optimal layout with text and other symbols, vertically align</text>
  <text style="stroke:none;fill:black;font-family:sans-serif;font-size:13;" transform="matrix(1 0 0 1 263 2007)">symbols with the adjacent text.</text>
  <line style="fill:none;stroke:#00AEEF;stroke-width:0.5;opacity:1.0;" x1="776" x2="776" y1="1919" y2="1933"/>
  <g transform="matrix(1 0 0 1 776 1933)">
   <path d="M3.31055 0.15625C3.82812 0.15625 4.08203-0.0390625 4.26758-0.585938L5.52734-4.0332L11.2891-4.0332L12.5488-0.585938C12.7344-0.0390625 12.9883 0.15625 13.4961 0.15625C14.0137 0.15625 14.3457-0.15625 14.3457-0.644531C14.3457-0.810547 14.3164-0.966797 14.2383-1.17188L9.6582-13.3691C9.43359-13.9648 9.0332-14.2676 8.4082-14.2676C7.80273-14.2676 7.39258-13.9746 7.17773-13.3789L2.59766-1.16211C2.51953-0.957031 2.49023-0.800781 2.49023-0.634766C2.49023-0.146484 2.80273 0.15625 3.31055 0.15625ZM6.00586-5.51758L8.37891-12.0898L8.42773-12.0898L10.8008-5.51758Z"/>
  </g>
  <line style="fill:none;stroke:#00AEEF;stroke-width:0.5;opacity:1.0;" x1="793.197" x2="793.197" y1="1919" y2="1933"/>
  <text style="stroke:none;fill:black;font-family:sans-serif;font-size:13;font-weight:bold;" transform="matrix(1 0 0 1 776 1953)">Margins</text>
  <text style="stroke:none;fill:black;font-family:sans-serif;font-size:13;" transform="matrix(1 0 0 1 776 1971)">Leading and trailing margins on the left and right side of each symbol</text>
  <text style="stroke:none;fill:black;font-family:sans-serif;font-size:13;" transform="matrix(1 0 0 1 776 1989)">can be adjusted by modifying the x-location of the margin guidelines.</text>
  <text style="stroke:none;fill:black;font-family:sans-serif;font-size:13;" transform="matrix(1 0 0 1 776 2007)">Modifications are automatically applied proportionally to all</text>
  <text style="stroke:none;fill:black;font-family:sans-serif;font-size:13;" transform="matrix(1 0 0 1 776 2025)">scales and weights.</text>
  <g transform="matrix(1 0 0 1 1289 1933)">
   <path d="M2.8418 1.86523L4.54102 3.57422C5.40039 4.44336 6.38672 4.38477 7.31445 3.35938L18.0078-8.42773L17.041-9.4043L6.42578 2.27539C6.07422 2.67578 5.74219 2.77344 5.27344 2.30469L4.10156 1.14258C3.63281 0.683594 3.74023 0.341797 4.14062-0.0195312L15.6152-10.8203L14.6387-11.7871L3.04688-0.898438C2.06055 0.0195312 1.98242 0.996094 2.8418 1.86523ZM9.25781-16.3281C8.83789-15.918 8.80859-15.3418 9.04297-14.9512C9.27734-14.5898 9.73633-14.3555 10.3809-14.5215C11.8457-14.8633 13.3691-14.9219 14.7949-13.9844L14.209-12.5293C13.8672-11.6992 14.043-11.1133 14.5801-10.5664L16.875-8.25195C17.3633-7.76367 17.7734-7.74414 18.3398-7.8418L19.4043-8.03711L20.0684-7.36328L20.0293-6.80664C19.9902-6.30859 20.1172-5.92773 20.6055-5.44922L21.3672-4.70703C21.8457-4.22852 22.4609-4.19922 22.9297-4.66797L25.8398-7.58789C26.3086-8.05664 26.2891-8.65234 25.8105-9.13086L25.0391-9.89258C24.5605-10.3711 24.1895-10.5273 23.7109-10.4883L23.1348-10.4395L22.4902-11.0742L22.7344-12.1973C22.8613-12.7637 22.7051-13.2031 22.1191-13.7891L19.9219-15.9766C16.582-19.2969 12.1484-19.2188 9.25781-16.3281ZM10.752-15.957C13.1836-17.7344 16.4746-17.4316 18.7012-15.2051L21.1328-12.793C21.3672-12.5586 21.4062-12.373 21.3379-12.0312L21.0156-10.5469L22.5195-9.0625L23.5059-9.12109C23.7598-9.13086 23.8379-9.11133 24.0332-8.91602L24.6094-8.33984L22.168-5.89844L21.5918-6.47461C21.3965-6.66992 21.3672-6.74805 21.377-7.01172L21.4453-7.98828L19.9512-9.47266L18.4277-9.21875C18.1055-9.15039 17.959-9.17969 17.7148-9.41406L15.7129-11.416C15.459-11.6504 15.4297-11.8164 15.5859-12.1875L16.4648-14.2773C14.9023-15.7324 12.8711-16.3574 10.8398-15.7617C10.6836-15.7227 10.625-15.8496 10.752-15.957Z"/>
  </g>
  <text style="stroke:none;fill:black;font-family:sans-serif;font-size:13;font-weight:bold;" transform="matrix(1 0 0 1 1289 1953)">Exporting</text>
  <text style="stroke:none;fill:black;font-family:sans-serif;font-size:13;" transform="matrix(1 0 0 1 1289 1971)">Symbols should be outlined when exporting to ensure the</text>
  <text style="stroke:none;fill:black;font-family:sans-serif;font-size:13;" transform="matrix(1 0 0 1 1289 1989)">design is preserved when submitting to Xcode.</text>
  <text id="template-version" style="stroke:none;fill:black;font-family:sans-serif;font-size:13;text-anchor:end;" transform="matrix(1 0 0 1 3036 1933)">Template v.4.0</text>
  <text style="stroke:none;fill:black;font-family:sans-serif;font-size:13;text-anchor:end;" transform="matrix(1 0 0 1 3036 1951)">Requires Xcode 14 or greater</text>
  <text id="descriptive-name" style="stroke:none;fill:black;font-family:sans-serif;font-size:13;text-anchor:end;" transform="matrix(1 0 0 1 3036 1969)">Generated from platter.2.filled.ipad.landscape</text>
  <text style="stroke:none;fill:black;font-family:sans-serif;font-size:13;text-anchor:end;" transform="matrix(1 0 0 1 3036 1987)">Typeset at 100 points</text>
  <text style="stroke:none;fill:black;font-family:sans-serif;font-size:13;" transform="matrix(1 0 0 1 263 726)">Small</text>
  <text style="stroke:none;fill:black;font-family:sans-serif;font-size:13;" transform="matrix(1 0 0 1 263 1156)">Medium</text>
  <text style="stroke:none;fill:black;font-family:sans-serif;font-size:13;" transform="matrix(1 0 0 1 263 1586)">Large</text>
 </g>
 <g id="Guides">
  <g id="H-reference" style="fill:#27AAE1;stroke:none;" transform="matrix(1 0 0 1 339 696)">
   <path d="M0.993654 0L3.63775 0L29.3281-67.1323L30.0303-67.1323L30.0303-70.459L28.1226-70.459ZM11.6885-24.4799L46.9815-24.4799L46.2315-26.7285L12.4385-26.7285ZM55.1196 0L57.7637 0L30.6382-70.459L29.4326-70.459L29.4326-67.1323Z"/>
  </g>
  <line id="Baseline-S" style="fill:none;stroke:#27AAE1;opacity:1;stroke-width:0.5;" x1="263" x2="3036" y1="696" y2="696"/>
  <line id="Capline-S" style="fill:none;stroke:#27AAE1;opacity:1;stroke-width:0.5;" x1="263" x2="3036" y1="625.541" y2="625.541"/>
  <g id="H-reference" style="fill:#27AAE1;stroke:none;" transform="matrix(1 0 0 1 339 1126)">
   <path d="M0.993654 0L3.63775 0L29.3281-67.1323L30.0303-67.1323L30.0303-70.459L28.1226-70.459ZM11.6885-24.4799L46.9815-24.4799L46.2315-26.7285L12.4385-26.7285ZM55.1196 0L57.7637 0L30.6382-70.459L29.4326-70.459L29.4326-67.1323Z"/>
  </g>
  <line id="Baseline-M" style="fill:none;stroke:#27AAE1;opacity:1;stroke-width:0.5;" x1="263" x2="3036" y1="1126" y2="1126"/>
  <line id="Capline-M" style="fill:none;stroke:#27AAE1;opacity:1;stroke-width:0.5;" x1="263" x2="3036" y1="1055.54" y2="1055.54"/>
  <g id="H-reference" style="fill:#27AAE1;stroke:none;" transform="matrix(1 0 0 1 339 1556)">
   <path d="M0.993654 0L3.63775 0L29.3281-67.1323L30.0303-67.1323L30.0303-70.459L28.1226-70.459ZM11.6885-24.4799L46.9815-24.4799L46.2315-26.7285L12.4385-26.7285ZM55.1196 0L57.7637 0L30.6382-70.459L29.4326-70.459L29.4326-67.1323Z"/>
  </g>
  <line id="Baseline-L" style="fill:none;stroke:#27AAE1;opacity:1;stroke-width:0.5;" x1="263" x2="3036" y1="1556" y2="1556"/>
  <line id="Capline-L" style="fill:none;stroke:#27AAE1;opacity:1;stroke-width:0.5;" x1="263" x2="3036" y1="1485.54" y2="1485.54"/>
  <line id="left-margin-Regular-M" style="fill:none;stroke:#00AEEF;stroke-width:0.5;opacity:1.0;" x1="1379.84" x2="1379.84" y1="1030.79" y2="1150.12"/>
  <line id="right-margin-Regular-M" style="fill:none;stroke:#00AEEF;stroke-width:0.5;opacity:1.0;" x1="1519.85" x2="1519.85" y1="1030.79" y2="1150.12"/>
 </g>
 <g id="Symbols">
  <g id="Black-L" transform="matrix(1 0 0 1 2839.1 1556)">
   <path d="M39.914 26.4225L148.737 26.4225C163.901 26.4225 172.509 17.7542 172.509 2.65493L172.509-73.0895C172.509-88.1888 163.901-96.7987 148.737-96.7987L39.8556-96.7987C24.7123-96.7987 16.084-88.1912 16.084-73.0895L16.084 2.65493C16.084 17.7566 24.7707 26.4225 39.914 26.4225ZM42.6448 6.42071C38.3288 6.42071 36.1234 4.51135 36.1234-0.121475L36.1234-70.2547C36.1234-74.8667 38.2704-76.7969 42.5864-76.7969L146.006-76.7969C150.317-76.7969 152.528-74.8667 152.528-70.2547L152.528-0.121475C152.528 4.51135 150.317 6.42071 146.006 6.42071ZM54.4856-20.4212L83.6562-20.4212C86.9582-20.4212 89.2087-22.6718 89.2087-26.1322L89.2087-44.2439C89.2087-47.7044 86.9582-49.9549 83.6562-49.9549L54.4856-49.9549C51.1836-49.9549 48.933-47.7044 48.933-44.2439L48.933-26.1322C48.933-22.6718 51.1836-20.4212 54.4856-20.4212ZM105.03-20.4212L134.18-20.4212C137.482-20.4212 139.733-22.6718 139.733-26.1322L139.733-44.2439C139.733-47.7044 137.482-49.9549 134.18-49.9549L105.03-49.9549C101.707-49.9549 99.4777-47.7044 99.4777-44.2439L99.4777-26.1322C99.4777-22.6718 101.707-20.4212 105.03-20.4212Z"/>
  </g>
  <g id="Heavy-L" transform="matrix(1 0 0 1 2543.36 1556)">
   <path d="M38.8761 25.5159L147.835 25.5159C162.478 25.5159 170.583 17.3554 170.583 2.81432L170.583-73.2263C170.583-87.7674 162.478-95.8832 147.835-95.8832L38.8315-95.8832C24.2188-95.8832 16.084-87.7786 16.084-73.2263L16.084 2.81432C16.084 17.3666 24.2634 25.5159 38.8761 25.5159ZM41.0003 7.98528C36.1626 7.98528 33.629 5.72074 33.629 0.583786L33.629-70.9511C33.629-76.0579 36.118-78.3526 40.9557-78.3526L145.711-78.3526C150.526-78.3526 153.082-76.0579 153.082-70.9511L153.082 0.583786C153.082 5.72074 150.526 7.98528 145.711 7.98528ZM51.8597-20.3672L82.4331-20.3672C85.7528-20.3672 87.9989-22.6133 87.9989-26.0826L87.9989-44.2847C87.9989-47.754 85.7528-50.0002 82.4331-50.0002L51.8597-50.0002C48.54-50.0002 46.2939-47.754 46.2939-44.2847L46.2939-26.0826C46.2939-22.6133 48.54-20.3672 51.8597-20.3672ZM104.053-20.3672L134.596-20.3672C137.916-20.3672 140.162-22.6133 140.162-26.0826L140.162-44.2847C140.162-47.754 137.916-50.0002 134.596-50.0002L104.053-50.0002C100.703-50.0002 98.4869-47.754 98.4869-44.2847L98.4869-26.0826C98.4869-22.6133 100.703-20.3672 104.053-20.3672Z"/>
  </g>
  <g id="Bold-L" transform="matrix(1 0 0 1 2247.78 1556)">
   <path d="M37.5704 24.3865L146.848 24.3865C160.8 24.3865 168.305 16.8263 168.305 3.01403L168.305-73.3953C168.305-87.2076 160.8-94.7386 146.848-94.7386L37.5412-94.7386C23.6265-94.7386 16.084-87.2341 16.084-73.3953L16.084 3.01403C16.084 16.8528 23.6557 24.3865 37.5704 24.3865ZM39.0162 9.90678C33.4957 9.90678 30.5549 7.19674 30.5549 1.40752L30.5549-71.7596C30.5549-77.5109 33.4665-80.2589 38.987-80.2589L145.402-80.2589C150.869-80.2589 153.863-77.5109 153.863-71.7596L153.863 1.40752C153.863 7.19674 150.869 9.90678 145.402 9.90678ZM48.7509-20.2906L81.0088-20.2906C84.3589-20.2906 86.5974-22.5292 86.5974-26.0137L86.5974-44.3384C86.5974-47.823 84.3589-50.0615 81.0088-50.0615L48.7509-50.0615C45.4007-50.0615 43.1622-47.823 43.1622-44.3384L43.1622-26.0137C43.1622-22.5292 45.4007-20.2906 48.7509-20.2906ZM102.943-20.2906L135.163-20.2906C138.513-20.2906 140.752-22.5292 140.752-26.0137L140.752-44.3384C140.752-47.823 138.513-50.0615 135.163-50.0615L102.943-50.0615C99.5549-50.0615 97.3544-47.823 97.3544-44.3384L97.3544-26.0137C97.3544-22.5292 99.5549-20.2906 102.943-20.2906Z"/>
  </g>
  <g id="Semibold-L" transform="matrix(1 0 0 1 1951.86 1556)">
   <path d="M36.6703 23.608L146.167 23.608C159.644 23.608 166.734 16.4615 166.734 3.15171L166.734-73.5119C166.734-86.8217 159.644-93.9496 146.167-93.9496L36.6517-93.9496C23.2182-93.9496 16.084-86.8587 16.084-73.5119L16.084 3.15171C16.084 16.4985 23.2368 23.608 36.6703 23.608ZM37.6484 11.2314C31.6572 11.2314 28.4357 8.21429 28.4357 1.97539L28.4357-72.317C28.4357-78.5125 31.6387-81.573 37.6298-81.573L145.189-81.573C151.106-81.573 154.401-78.5125 154.401-72.317L154.401 1.97539C154.401 8.21429 151.106 11.2314 145.189 11.2314ZM46.6077-20.2379L80.0268-20.2379C83.398-20.2379 85.6313-22.4711 85.6313-25.9662L85.6313-44.3755C85.6313-47.8705 83.398-50.1037 80.0268-50.1037L46.6077-50.1037C43.2366-50.1037 41.0033-47.8705 41.0033-44.3755L41.0033-25.9662C41.0033-22.4711 43.2366-20.2379 46.6077-20.2379ZM102.178-20.2379L135.554-20.2379C138.925-20.2379 141.158-22.4711 141.158-25.9662L141.158-44.3755C141.158-47.8705 138.925-50.1037 135.554-50.1037L102.178-50.1037C98.7636-50.1037 96.5737-47.8705 96.5737-44.3755L96.5737-25.9662C96.5737-22.4711 98.7636-20.2379 102.178-20.2379Z"/>
  </g>
  <g id="Medium-L" transform="matrix(1 0 0 1 1655.74 1556)">
   <path d="M35.9878 23.0176L145.65 23.0176C158.767 23.0176 165.544 16.185 165.544 3.25611L165.544-73.6003C165.544-86.5291 158.767-93.3513 145.65-93.3513L35.9773-93.3513C22.9086-93.3513 16.084-86.574 16.084-73.6003L16.084 3.25611C16.084 16.2299 22.9192 23.0176 35.9878 23.0176ZM36.6112 12.2359C30.2632 12.2359 26.8288 8.98584 26.8288 2.40598L26.8288-72.7396C26.8288-79.272 30.2527-82.5695 36.6007-82.5695L145.027-82.5695C151.285-82.5695 154.809-79.272 154.809-72.7396L154.809 2.40598C154.809 8.98584 151.285 12.2359 145.027 12.2359ZM44.9827-20.1978L79.2823-20.1978C82.6694-20.1978 84.8987-22.4271 84.8987-25.9301L84.8987-44.4035C84.8987-47.9065 82.6694-50.1358 79.2823-50.1358L44.9827-50.1358C41.5956-50.1358 39.3663-47.9065 39.3663-44.4035L39.3663-25.9301C39.3663-22.4271 41.5956-20.1978 44.9827-20.1978ZM101.598-20.1978L135.85-20.1978C139.237-20.1978 141.467-22.4271 141.467-25.9301L141.467-44.4035C141.467-47.9065 139.237-50.1358 135.85-50.1358L101.598-50.1358C98.1635-50.1358 95.9817-47.9065 95.9817-44.4035L95.9817-25.9301C95.9817-22.4271 98.1635-20.1978 101.598-20.1978Z"/>
  </g>
  <g id="Regular-L" transform="matrix(1 0 0 1 1359.81 1556)">
   <path d="M35.0976 22.2476L144.977 22.2476C157.623 22.2476 163.991 15.8242 163.991 3.39227L163.991-73.7155C163.991-86.1475 157.623-92.5709 144.977-92.5709L35.0976-92.5709C22.5048-92.5709 16.084-86.2028 16.084-73.7155L16.084 3.39227C16.084 15.8795 22.5048 22.2476 35.0976 22.2476ZM35.2584 13.546C28.4449 13.546 24.7328 9.9922 24.7328 2.96762L24.7328-73.2909C24.7328-80.2627 28.4449-83.8692 35.2584-83.8692L144.816-83.8692C151.519-83.8692 155.342-80.2627 155.342-73.2909L155.342 2.96762C155.342 9.9922 151.519 13.546 144.816 13.546ZM42.863-20.1457L78.3112-20.1457C81.719-20.1457 83.9431-22.3698 83.9431-25.8831L83.9431-44.4401C83.9431-47.9535 81.719-50.1776 78.3112-50.1776L42.863-50.1776C39.4552-50.1776 37.2311-47.9535 37.2311-44.4401L37.2311-25.8831C37.2311-22.3698 39.4552-20.1457 42.863-20.1457ZM100.841-20.1457L136.237-20.1457C139.645-20.1457 141.869-22.3698 141.869-25.8831L141.869-44.4401C141.869-47.9535 139.645-50.1776 136.237-50.1776L100.841-50.1776C97.3809-50.1776 95.2095-47.9535 95.2095-44.4401L95.2095-25.8831C95.2095-22.3698 97.3809-20.1457 100.841-20.1457Z"/>
  </g>
  <g id="Light-L" transform="matrix(1 0 0 1 1063.53 1556)">
   <path d="M34.067 21.4269L145.13 21.4269C157.012 21.4269 163.113 15.2326 163.113 3.54496L163.113-73.83C163.113-85.5176 157.012-91.712 145.13-91.712L34.067-91.712C22.2185-91.712 16.084-85.6111 16.084-73.83L16.084 3.54496C16.084 15.3261 22.2185 21.4269 34.067 21.4269ZM34.2278 14.7674C26.7082 14.7674 22.7098 10.8701 22.7098 3.21573L22.7098-73.5008C22.7098-81.1215 26.7082-85.0525 34.2278-85.0525L144.969-85.0525C152.302-85.0525 156.487-81.1215 156.487-73.5008L156.487 3.21573C156.487 10.8701 152.302 14.7674 144.969 14.7674ZM41.6416-20.0311L77.9104-20.0311C81.3945-20.0311 83.5996-22.2362 83.5996-25.7877L83.5996-44.4974C83.5996-48.0489 81.3945-50.2539 77.9104-50.2539L41.6416-50.2539C38.1574-50.2539 35.9524-48.0489 35.9524-44.4974L35.9524-25.7877C35.9524-22.2362 38.1574-20.0311 41.6416-20.0311ZM100.727-20.0311L136.962-20.0311C140.446-20.0311 142.651-22.2362 142.651-25.7877L142.651-44.4974C142.651-48.0489 140.446-50.2539 136.962-50.2539L100.727-50.2539C97.2091-50.2539 95.0378-48.0489 95.0378-44.4974L95.0378-25.7877C95.0378-22.2362 97.2091-20.0311 100.727-20.0311Z"/>
  </g>
  <g id="Thin-L" transform="matrix(1 0 0 1 767.404 1556)">
   <path d="M32.7039 20.3415L145.332 20.3415C156.204 20.3415 161.952 14.4501 161.952 3.74689L161.952-73.9815C161.952-84.6847 156.204-90.5761 145.332-90.5761L32.7039-90.5761C21.8399-90.5761 16.084-84.8286 16.084-73.9815L16.084 3.74689C16.084 14.594 21.8399 20.3415 32.7039 20.3415ZM32.8648 16.3829C24.4111 16.3829 20.0342 12.0312 20.0342 3.54387L20.0342-73.7785C20.0342-82.2574 24.4111-86.6175 32.8648-86.6175L145.171-86.6175C153.337-86.6175 158.001-82.2574 158.001-73.7785L158.001 3.54387C158.001 12.0312 153.337 16.3829 145.171 16.3829ZM40.0261-19.8797L77.3803-19.8797C80.9654-19.8797 83.1452-22.0595 83.1452-25.6615L83.1452-44.5731C83.1452-48.1751 80.9654-50.3549 77.3803-50.3549L40.0261-50.3549C36.4409-50.3549 34.2612-48.1751 34.2612-44.5731L34.2612-25.6615C34.2612-22.0595 36.4409-19.8797 40.0261-19.8797ZM100.576-19.8797L137.921-19.8797C141.506-19.8797 143.686-22.0595 143.686-25.6615L143.686-44.5731C143.686-48.1751 141.506-50.3549 137.921-50.3549L100.576-50.3549C96.9819-50.3549 94.8106-48.1751 94.8106-44.5731L94.8106-25.6615C94.8106-22.0595 96.9819-19.8797 100.576-19.8797Z"/>
  </g>
  <g id="Ultralight-L" transform="matrix(1 0 0 1 470.991 1556)">
   <path d="M32.0058 19.7856L145.435 19.7856C155.79 19.7856 161.357 14.0493 161.357 3.85032L161.357-74.0591C161.357-84.258 155.79-89.9943 145.435-89.9943L32.0058-89.9943C21.646-89.9943 16.084-84.4278 16.084-74.0591L16.084 3.85032C16.084 14.2191 21.646 19.7856 32.0058 19.7856ZM32.1666 17.2104C23.2346 17.2104 18.6637 12.626 18.6637 3.71194L18.6637-73.9207C18.6637-82.8392 23.2346-87.4191 32.1666-87.4191L145.274-87.4191C153.867-87.4191 158.777-82.8392 158.777-73.9207L158.777 3.71194C158.777 12.626 153.867 17.2104 145.274 17.2104ZM39.1987-19.8021L77.1088-19.8021C80.7456-19.8021 82.9125-21.969 82.9125-25.5968L82.9125-44.6119C82.9125-48.2398 80.7456-50.4066 77.1088-50.4066L39.1987-50.4066C35.5618-50.4066 33.3949-48.2398 33.3949-44.6119L33.3949-25.5968C33.3949-21.969 35.5618-19.8021 39.1987-19.8021ZM100.498-19.8021L138.413-19.8021C142.049-19.8021 144.216-21.969 144.216-25.5968L144.216-44.6119C144.216-48.2398 142.049-50.4066 138.413-50.4066L100.498-50.4066C96.8656-50.4066 94.6942-48.2398 94.6942-44.6119L94.6942-25.5968C94.6942-21.969 96.8656-19.8021 100.498-19.8021Z"/>
  </g>
  <g id="Black-M" transform="matrix(1 0 0 1 2859.58 1126)">
   <path d="M31.6755 13.203L116.029 13.203C128.122 13.203 135.186 6.08179 135.186-5.99514L135.186-64.4592C135.186-76.5361 128.122-83.6002 116.029-83.6002L31.6184-83.6002C19.5311-83.6002 12.4609-76.5356 12.4609-64.4592L12.4609-5.99514C12.4609 6.08122 19.5882 13.203 31.6755 13.203ZM34.3124-4.14048C31.3214-4.14048 29.856-5.36104 29.856-8.60235L29.856-61.7949C29.856-65.0307 31.2643-66.2568 34.2553-66.2568L113.392-66.2568C116.384-66.2568 117.848-65.0307 117.848-61.7949L117.848-8.60235C117.848-5.36104 116.384-4.14048 113.392-4.14048ZM44.3036-23.7879L65.8087-23.7879C68.3621-23.7879 70.1069-25.5327 70.1069-28.2112L70.1069-42.186C70.1069-44.8646 68.3621-46.6094 65.8087-46.6094L44.3036-46.6094C41.7502-46.6094 40.0054-44.8646 40.0054-42.186L40.0054-28.2112C40.0054-25.5327 41.7502-23.7879 44.3036-23.7879ZM82.196-23.7879L103.696-23.7879C106.249-23.7879 107.994-25.5327 107.994-28.2112L107.994-42.186C107.994-44.8646 106.249-46.6094 103.696-46.6094L82.196-46.6094C79.6372-46.6094 77.8979-44.8646 77.8979-42.186L77.8979-28.2112C77.8979-25.5327 79.6372-23.7879 82.196-23.7879Z"/>
  </g>
  <g id="Heavy-M" transform="matrix(1 0 0 1 2563.77 1126)">
   <path d="M30.7559 12.3923L115.133 12.3923C126.787 12.3923 133.384 5.74651 133.384-5.85341L133.384-64.5823C133.384-76.1823 126.787-82.7845 115.133-82.7845L30.7123-82.7845C19.075-82.7845 12.4609-76.1868 12.4609-64.5823L12.4609-5.85341C12.4609 5.75105 19.1186 12.3923 30.7559 12.3923ZM32.7999-2.72369C29.364-2.72369 27.6042-4.25976 27.6042-7.93579L27.6042-62.4563C27.6042-66.116 29.3203-67.6684 32.7562-67.6684L113.089-67.6684C116.516-67.6684 118.285-66.116 118.285-62.4563L118.285-7.93579C118.285-4.25976 116.516-2.72369 113.089-2.72369ZM41.8493-23.7456L64.6501-23.7456C67.2137-23.7456 68.956-25.4878 68.956-28.1715L68.956-42.2207C68.956-44.9043 67.2137-46.6466 64.6501-46.6466L41.8493-46.6466C39.2857-46.6466 37.5434-44.9043 37.5434-42.2207L37.5434-28.1715C37.5434-25.4878 39.2857-23.7456 41.8493-23.7456ZM81.2509-23.7456L104.035-23.7456C106.599-23.7456 108.341-25.4878 108.341-28.1715L108.341-42.2207C108.341-44.9043 106.599-46.6466 104.035-46.6466L81.2509-46.6466C78.6709-46.6466 76.9451-44.9043 76.9451-42.2207L76.9451-28.1715C76.9451-25.4878 78.6709-23.7456 81.2509-23.7456Z"/>
  </g>
  <g id="Bold-M" transform="matrix(1 0 0 1 2268.06 1126)">
   <path d="M29.7272 11.4855L114.131 11.4855C125.293 11.4855 131.368 5.37145 131.368-5.69487L131.368-64.7201C131.368-75.7864 125.293-81.8719 114.131-81.8719L29.6986-81.8719C18.5648-81.8719 12.4609-75.7967 12.4609-64.7201L12.4609-5.69487C12.4609 5.38171 18.5934 11.4855 29.7272 11.4855ZM31.1079-1.13881C27.1743-1.13881 25.0852-3.02783 25.0852-7.19016L25.0852-63.1963C25.0852-67.33 27.1457-69.2476 31.0794-69.2476L112.75-69.2476C116.663-69.2476 118.773-67.33 118.773-63.1963L118.773-7.19016C118.773-3.02783 116.663-1.13881 112.75-1.13881ZM39.1037-23.6983L63.354-23.6983C65.9291-23.6983 67.6685-25.4377 67.6685-28.127L67.6685-42.2594C67.6685-44.9487 65.9291-46.6881 63.354-46.6881L39.1037-46.6881C36.5287-46.6881 34.7893-44.9487 34.7893-42.2594L34.7893-28.127C34.7893-25.4377 36.5287-23.6983 39.1037-23.6983ZM80.1937-23.6983L104.415-23.6983C106.99-23.6983 108.73-25.4377 108.73-28.127L108.73-42.2594C108.73-44.9487 106.99-46.6881 104.415-46.6881L80.1937-46.6881C77.5901-46.6881 75.8793-44.9487 75.8793-42.2594L75.8793-28.127C75.8793-25.4377 77.5901-23.6983 80.1937-23.6983Z"/>
  </g>
  <g id="Semibold-M" transform="matrix(1 0 0 1 1972.05 1126)">
   <path d="M29.018 10.8604L113.44 10.8604C124.264 10.8604 129.979 5.11288 129.979-5.58557L129.979-64.8151C129.979-75.5135 124.264-81.2428 113.44-81.2428L28.9998-81.2428C18.2131-81.2428 12.4609-75.5277 12.4609-64.8151L12.4609-5.58557C12.4609 5.12709 18.2313 10.8604 29.018 10.8604ZM29.9415-0.0461991C25.6647-0.0461991 23.3486-2.17855 23.3486-6.67612L23.3486-63.7063C23.3486-68.1669 25.6466-70.3363 29.9233-70.3363L112.516-70.3363C116.765-70.3363 119.109-68.1669 119.109-63.7063L119.109-6.67612C119.109-2.17855 116.765-0.0461991 112.516-0.0461991ZM37.211-23.6657L62.4605-23.6657C65.0434-23.6657 66.7809-25.4031 66.7809-28.0964L66.7809-42.2861C66.7809-44.9794 65.0434-46.7168 62.4605-46.7168L37.211-46.7168C34.628-46.7168 32.8906-44.9794 32.8906-42.2861L32.8906-28.0964C32.8906-25.4031 34.628-23.6657 37.211-23.6657ZM79.4649-23.6657L104.677-23.6657C107.26-23.6657 108.998-25.4031 108.998-28.0964L108.998-42.2861C108.998-44.9794 107.26-46.7168 104.677-46.7168L79.4649-46.7168C76.8449-46.7168 75.1445-44.9794 75.1445-42.2861L75.1445-28.0964C75.1445-25.4031 76.8449-23.6657 79.4649-23.6657Z"/>
  </g>
  <g id="Medium-M" transform="matrix(1 0 0 1 1675.86 1126)">
   <path d="M28.4803 10.3864L112.916 10.3864C123.483 10.3864 128.925 4.91683 128.925-5.50269L128.925-64.8871C128.925-75.3066 123.483-80.7658 112.916-80.7658L28.47-80.7658C17.9464-80.7658 12.4609-75.3238 12.4609-64.8871L12.4609-5.50269C12.4609 4.93403 17.9567 10.3864 28.4803 10.3864ZM29.0571 0.782262C24.5201 0.782262 22.0319-1.53459 22.0319-6.28636L22.0319-64.0931C22.0319-68.8015 24.5098-71.1617 29.0468-71.1617L112.339-71.1617C116.842-71.1617 119.364-68.8015 119.364-64.0931L119.364-6.28636C119.364-1.53459 116.842 0.782262 112.339 0.782262ZM35.7758-23.6409L61.783-23.6409C64.3719-23.6409 66.1078-25.3769 66.1078-28.0732L66.1078-42.3063C66.1078-45.0026 64.3719-46.7386 61.783-46.7386L35.7758-46.7386C33.1869-46.7386 31.451-45.0026 31.451-42.3063L31.451-28.0732C31.451-25.3769 33.1869-23.6409 35.7758-23.6409ZM78.9122-23.6409L104.876-23.6409C107.465-23.6409 109.201-25.3769 109.201-28.0732L109.201-42.3063C109.201-45.0026 107.465-46.7386 104.876-46.7386L78.9122-46.7386C76.2799-46.7386 74.5874-45.0026 74.5874-42.3063L74.5874-28.0732C74.5874-25.3769 76.2799-23.6409 78.9122-23.6409Z"/>
  </g>
  <g id="Regular-M" transform="matrix(1 0 0 1 1379.84 1126)">
   <path d="M27.7789 9.76808L112.233 9.76808C122.465 9.76808 127.551 4.6611 127.551-5.3946L127.551-64.981C127.551-75.0367 122.465-80.1437 112.233-80.1437L27.7789-80.1437C17.5986-80.1437 12.4609-75.0578 12.4609-64.981L12.4609-5.3946C12.4609 4.6822 17.5986 9.76808 27.7789 9.76808ZM27.9035 1.86286C23.0272 1.86286 20.3144-0.694633 20.3144-5.77797L20.3144-64.5976C20.3144-69.6292 23.0272-72.2384 27.9035-72.2384L112.108-72.2384C116.942-72.2384 119.697-69.6292 119.697-64.5976L119.697-5.77797C119.697-0.694633 116.942 1.86286 112.108 1.86286ZM33.9038-23.6087L60.8993-23.6087C63.496-23.6087 65.23-25.3426 65.23-28.0429L65.23-42.3327C65.23-45.0329 63.496-46.7669 60.8993-46.7669L33.9038-46.7669C31.3071-46.7669 29.5732-45.0329 29.5732-42.3327L29.5732-28.0429C29.5732-25.3426 31.3071-23.6087 33.9038-23.6087ZM78.1914-23.6087L105.135-23.6087C107.732-23.6087 109.466-25.3426 109.466-28.0429L109.466-42.3327C109.466-45.0329 107.732-46.7669 105.135-46.7669L78.1914-46.7669C75.5429-46.7669 73.8607-45.0329 73.8607-42.3327L73.8607-28.0429C73.8607-25.3426 75.5429-23.6087 78.1914-23.6087Z"/>
  </g>
  <g id="Light-M" transform="matrix(1 0 0 1 1083.52 1126)">
   <path d="M26.8549 9.03231L112.37 9.03231C121.917 9.03231 126.764 4.13066 126.764-5.25771L126.764-65.0836C126.764-74.472 121.917-79.3737 112.37-79.3737L26.8549-79.3737C17.3419-79.3737 12.4609-74.5273 12.4609-65.0836L12.4609-5.25771C12.4609 4.18599 17.3419 9.03231 26.8549 9.03231ZM26.9795 2.95796C21.4701 2.95796 18.5006 0.0924704 18.5006-5.55553L18.5006-64.7858C18.5006-70.3992 21.4701-73.2993 26.9795-73.2993L112.245-73.2993C117.644-73.2993 120.724-70.3992 120.724-64.7858L120.724-5.55553C120.724 0.0924704 117.644 2.95796 112.245 2.95796ZM32.8087-23.506L60.54-23.506C63.2051-23.506 64.922-25.2229 64.922-27.9573L64.922-42.3841C64.922-45.1185 63.2051-46.8354 60.54-46.8354L32.8087-46.8354C30.1436-46.8354 28.4267-45.1185 28.4267-42.3841L28.4267-27.9573C28.4267-25.2229 30.1436-23.506 32.8087-23.506ZM78.0887-23.506L105.785-23.506C108.45-23.506 110.167-25.2229 110.167-27.9573L110.167-42.3841C110.167-45.1185 108.45-46.8354 105.785-46.8354L78.0887-46.8354C75.3889-46.8354 73.7067-45.1185 73.7067-42.3841L73.7067-27.9573C73.7067-25.2229 75.3889-23.506 78.0887-23.506Z"/>
  </g>
  <g id="Thin-M" transform="matrix(1 0 0 1 787.33 1126)">
   <path d="M25.6328 8.0592L112.551 8.0592C121.193 8.0592 125.723 3.42911 125.723-5.07666L125.723-65.2194C125.723-73.7252 121.193-78.3553 112.551-78.3553L25.6328-78.3553C17.0024-78.3553 12.4609-73.8258 12.4609-65.2194L12.4609-5.07666C12.4609 3.5297 17.0024 8.0592 25.6328 8.0592ZM25.7574 4.40632C19.4107 4.40632 16.1018 1.13348 16.1018-5.26133L16.1018-65.0348C16.1018-71.4176 19.4107-74.7024 25.7574-74.7024L112.426-74.7024C118.572-74.7024 122.082-71.4176 122.082-65.0348L122.082-5.26133C122.082 1.13348 118.572 4.40632 112.426 4.40632ZM31.3604-23.3702L60.0648-23.3702C62.8204-23.3702 64.5147-25.0645 64.5147-27.8441L64.5147-42.452C64.5147-45.2316 62.8204-46.9259 60.0648-46.9259L31.3604-46.9259C28.6047-46.9259 26.9105-45.2316 26.9105-42.452L26.9105-27.8441C26.9105-25.0645 28.6047-23.3702 31.3604-23.3702ZM77.9529-23.3702L106.645-23.3702C109.401-23.3702 111.095-25.0645 111.095-27.8441L111.095-42.452C111.095-45.2316 109.401-46.9259 106.645-46.9259L77.9529-46.9259C75.1853-46.9259 73.503-45.2316 73.503-42.452L73.503-27.8441C73.503-25.0645 75.1853-23.3702 77.9529-23.3702Z"/>
  </g>
  <g id="Ultralight-M" transform="matrix(1 0 0 1 490.886 1126)">
   <path d="M25.0069 7.56077L112.644 7.56077C120.822 7.56077 125.189 3.06978 125.189-4.98393L125.189-65.289C125.189-73.3427 120.822-77.8337 112.644-77.8337L25.0069-77.8337C16.8286-77.8337 12.4609-73.4665 12.4609-65.289L12.4609-4.98393C12.4609 3.19355 16.8286 7.56077 25.0069 7.56077ZM25.1315 5.14816C18.3559 5.14816 14.8731 1.66668 14.8731-5.11065L14.8731-65.1623C14.8731-71.9392 18.3559-75.4211 25.1315-75.4211L112.519-75.4211C119.047-75.4211 122.777-71.9392 122.777-65.1623L122.777-5.11065C122.777 1.66668 119.047 5.14816 112.519 5.14816ZM30.6185-23.3007L59.8213-23.3007C62.6234-23.3007 64.306-24.9833 64.306-27.7862L64.306-42.4867C64.306-45.2896 62.6234-46.9722 59.8213-46.9722L30.6185-46.9722C27.8165-46.9722 26.1339-45.2896 26.1339-42.4867L26.1339-27.7862C26.1339-24.9833 27.8165-23.3007 30.6185-23.3007ZM77.8834-23.3007L107.086-23.3007C109.888-23.3007 111.57-24.9833 111.57-27.7862L111.57-42.4867C111.57-45.2896 109.888-46.9722 107.086-46.9722L77.8834-46.9722C75.0809-46.9722 73.3987-45.2896 73.3987-42.4867L73.3987-27.7862C73.3987-24.9833 75.0809-23.3007 77.8834-23.3007Z"/>
  </g>
  <g id="Black-S" transform="matrix(1 0 0 1 2875.29 696)">
   <path d="M25.0488 2.92969L91.2109 2.92969C100.781 2.92969 106.445-2.7832 106.445-12.3535L106.445-58.1055C106.445-67.6758 100.781-73.3398 91.2109-73.3398L25-73.3398C15.4297-73.3398 9.76562-67.6758 9.76562-58.1055L9.76562-12.3535C9.76562-2.7832 15.4785 2.92969 25.0488 2.92969ZM27.2949-11.2305C25.0488-11.2305 23.9746-12.1094 23.9746-14.5508L23.9746-55.8594C23.9746-58.3008 25-59.1797 27.2461-59.1797L88.9648-59.1797C91.2109-59.1797 92.2852-58.3008 92.2852-55.8594L92.2852-14.5508C92.2852-12.1094 91.2109-11.2305 88.9648-11.2305ZM35.4004-26.2695L51.9043-26.2695C53.9062-26.2695 55.2734-27.6367 55.2734-29.7363L55.2734-40.6738C55.2734-42.7734 53.9062-44.1406 51.9043-44.1406L35.4004-44.1406C33.3984-44.1406 32.0312-42.7734 32.0312-40.6738L32.0312-29.7363C32.0312-27.6367 33.3984-26.2695 35.4004-26.2695ZM64.6973-26.2695L81.2012-26.2695C83.2031-26.2695 84.5703-27.6367 84.5703-29.7363L84.5703-40.6738C84.5703-42.7734 83.2031-44.1406 81.2012-44.1406L64.6973-44.1406C62.6953-44.1406 61.3281-42.7734 61.3281-40.6738L61.3281-29.7363C61.3281-27.6367 62.6953-26.2695 64.6973-26.2695Z"/>
  </g>
  <g id="Heavy-S" transform="matrix(1 0 0 1 2579.3 696)">
   <path d="M24.3804 2.33042L90.4273 2.33042C99.7095 2.33042 105.005-3.00217 105.005-12.2498L105.005-58.1977C105.005-67.4453 99.7095-72.7406 90.4273-72.7406L24.3431-72.7406C15.0724-72.7406 9.76562-67.4453 9.76562-58.1977L9.76562-12.2498C9.76562-3.00217 15.1097 2.33042 24.3804 2.33042ZM26.1194-10.1587C23.5737-10.1587 22.2805-11.2681 22.2805-14.0091L22.2805-56.401C22.2805-59.1305 23.5364-60.2515 26.0821-60.2515L88.6883-60.2515C91.234-60.2515 92.5272-59.1305 92.5272-56.401L92.5272-14.0091C92.5272-11.2681 91.234-10.1587 88.6883-10.1587ZM33.4412-26.2465L50.9593-26.2465C52.9612-26.2465 54.3284-27.6137 54.3284-29.7133L54.3284-40.6969C54.3284-42.7965 52.9612-44.1637 50.9593-44.1637L33.4412-44.1637C31.4393-44.1637 30.0721-42.7965 30.0721-40.6969L30.0721-29.7133C30.0721-27.6137 31.4393-26.2465 33.4412-26.2465ZM63.9021-26.2465L81.4086-26.2465C83.4106-26.2465 84.7778-27.6137 84.7778-29.7133L84.7778-40.6969C84.7778-42.7965 83.4106-44.1637 81.4086-44.1637L63.9021-44.1637C61.8886-44.1637 60.5329-42.7965 60.5329-40.6969L60.5329-29.7133C60.5329-27.6137 61.8886-26.2465 63.9021-26.2465Z"/>
  </g>
  <g id="Bold-S" transform="matrix(1 0 0 1 2283.4 696)">
   <path d="M23.6328 1.66016L89.5508 1.66016C98.5107 1.66016 103.394-3.24707 103.394-12.1338L103.394-58.3008C103.394-67.1875 98.5107-72.0703 89.5508-72.0703L23.6084-72.0703C14.6729-72.0703 9.76562-67.1875 9.76562-58.3008L9.76562-12.1338C9.76562-3.24707 14.6973 1.66016 23.6328 1.66016ZM24.8047-8.95996C21.9238-8.95996 20.3857-10.3271 20.3857-13.4033L20.3857-57.0068C20.3857-60.0586 21.8994-61.4502 24.7803-61.4502L88.3789-61.4502C91.2598-61.4502 92.7979-60.0586 92.7979-57.0068L92.7979-13.4033C92.7979-10.3271 91.2598-8.95996 88.3789-8.95996ZM31.25-26.2207L49.9023-26.2207C51.9043-26.2207 53.2715-27.5879 53.2715-29.6875L53.2715-40.7227C53.2715-42.8223 51.9043-44.1895 49.9023-44.1895L31.25-44.1895C29.248-44.1895 27.8809-42.8223 27.8809-40.7227L27.8809-29.6875C27.8809-27.5879 29.248-26.2207 31.25-26.2207ZM63.0127-26.2207L81.6406-26.2207C83.6426-26.2207 85.0098-27.5879 85.0098-29.6875L85.0098-40.7227C85.0098-42.8223 83.6426-44.1895 81.6406-44.1895L63.0127-44.1895C60.9863-44.1895 59.6436-42.8223 59.6436-40.7227L59.6436-29.6875C59.6436-27.5879 60.9863-26.2207 63.0127-26.2207Z"/>
  </g>
  <g id="Semibold-S" transform="matrix(1 0 0 1 1987.24 696)">
   <path d="M23.1174 1.19805L88.9465 1.19805C97.6843 1.19805 102.283-3.41592 102.283-12.0538L102.283-58.3719C102.283-67.0098 97.6843-71.6082 88.9465-71.6082L23.1019-71.6082C14.3974-71.6082 9.76562-67.0098 9.76562-58.3719L9.76562-12.0538C9.76562-3.41592 14.4129 1.19805 23.1174 1.19805ZM23.8982-8.1335C20.7863-8.1335 19.0794-9.67842 19.0794-12.9856L19.0794-57.4245C19.0794-60.6984 20.7708-62.2767 23.8827-62.2767L88.1656-62.2767C91.2775-62.2767 92.9845-60.6984 92.9845-57.4245L92.9845-12.9856C92.9845-9.67842 91.2775-8.1335 88.1656-8.1335ZM29.7393-26.2029L49.1736-26.2029C51.1756-26.2029 52.5428-27.5701 52.5428-29.6697L52.5428-40.7404C52.5428-42.84 51.1756-44.2072 49.1736-44.2072L29.7393-44.2072C27.7373-44.2072 26.3701-42.84 26.3701-40.7404L26.3701-29.6697C26.3701-27.5701 27.7373-26.2029 29.7393-26.2029ZM62.3995-26.2029L81.8006-26.2029C83.8025-26.2029 85.1697-27.5701 85.1697-29.6697L85.1697-40.7404C85.1697-42.84 83.8025-44.2072 81.8006-44.2072L62.3995-44.2072C60.3643-44.2072 59.0304-42.84 59.0304-40.7404L59.0304-29.6697C59.0304-27.5701 60.3643-26.2029 62.3995-26.2029Z"/>
  </g>
  <g id="Medium-S" transform="matrix(1 0 0 1 1690.95 696)">
   <path d="M22.7266 0.847656L88.4883 0.847656C97.0576 0.847656 101.44-3.54395 101.44-11.9932L101.44-58.4258C101.44-66.875 97.0576-71.2578 88.4883-71.2578L22.7178-71.2578C14.1885-71.2578 9.76562-66.875 9.76562-58.4258L9.76562-11.9932C9.76562-3.54395 14.1973 0.847656 22.7266 0.847656ZM23.2109-7.50684C19.9238-7.50684 18.0889-9.18652 18.0889-12.6689L18.0889-57.7412C18.0889-61.1836 19.915-62.9033 23.2021-62.9033L88.0039-62.9033C91.291-62.9033 93.126-61.1836 93.126-57.7412L93.126-12.6689C93.126-9.18652 91.291-7.50684 88.0039-7.50684ZM28.5938-26.1895L48.6211-26.1895C50.623-26.1895 51.9902-27.5566 51.9902-29.6562L51.9902-40.7539C51.9902-42.8535 50.623-44.2207 48.6211-44.2207L28.5938-44.2207C26.5918-44.2207 25.2246-42.8535 25.2246-40.7539L25.2246-29.6562C25.2246-27.5566 26.5918-26.1895 28.5938-26.1895ZM61.9346-26.1895L81.9219-26.1895C83.9238-26.1895 85.291-27.5566 85.291-29.6562L85.291-40.7539C85.291-42.8535 83.9238-44.2207 81.9219-44.2207L61.9346-44.2207C59.8926-44.2207 58.5654-42.8535 58.5654-40.7539L58.5654-29.6562C58.5654-27.5566 59.8926-26.1895 61.9346-26.1895Z"/>
  </g>
  <g id="Regular-S" transform="matrix(1 0 0 1 1394.79 696)">
   <path d="M22.2168 0.390625L87.8906 0.390625C96.2402 0.390625 100.342-3.71094 100.342-11.9141L100.342-58.4961C100.342-66.6992 96.2402-70.8008 87.8906-70.8008L22.2168-70.8008C13.916-70.8008 9.76562-66.6992 9.76562-58.4961L9.76562-11.9141C9.76562-3.71094 13.916 0.390625 22.2168 0.390625ZM22.3145-6.68945C18.7988-6.68945 16.7969-8.54492 16.7969-12.2559L16.7969-58.1543C16.7969-61.8164 18.7988-63.7207 22.3145-63.7207L87.793-63.7207C91.3086-63.7207 93.3105-61.8164 93.3105-58.1543L93.3105-12.2559C93.3105-8.54492 91.3086-6.68945 87.793-6.68945ZM27.0996-26.1719L47.9004-26.1719C49.9023-26.1719 51.2695-27.5391 51.2695-29.6387L51.2695-40.7715C51.2695-42.8711 49.9023-44.2383 47.9004-44.2383L27.0996-44.2383C25.0977-44.2383 23.7305-42.8711 23.7305-40.7715L23.7305-29.6387C23.7305-27.5391 25.0977-26.1719 27.0996-26.1719ZM61.3281-26.1719L82.0801-26.1719C84.082-26.1719 85.4492-27.5391 85.4492-29.6387L85.4492-40.7715C85.4492-42.8711 84.082-44.2383 82.0801-44.2383L61.3281-44.2383C59.2773-44.2383 57.959-42.8711 57.959-40.7715L57.959-29.6387C57.959-27.5391 59.2773-26.1719 61.3281-26.1719Z"/>
  </g>
  <g id="Light-S" transform="matrix(1 0 0 1 1098.43 696)">
   <path d="M21.3994-0.260249L88.0117-0.260249C95.7559-0.260249 99.6455-4.18017 99.6455-11.793L99.6455-58.5869C99.6455-66.1997 95.7559-70.1196 88.0117-70.1196L21.3994-70.1196C13.689-70.1196 9.76562-66.23 9.76562-58.5869L9.76562-11.793C9.76562-4.1499 13.689-0.260249 21.3994-0.260249ZM21.4971-5.72071C17.4214-5.72071 15.1924-7.84864 15.1924-12.0591L15.1924-58.3208C15.1924-62.4976 17.4214-64.6592 21.4971-64.6592L87.9141-64.6592C91.9292-64.6592 94.2187-62.4976 94.2187-58.3208L94.2187-12.0591C94.2187-7.84864 91.9292-5.72071 87.9141-5.72071ZM26.1309-26.0811L47.5825-26.0811C49.645-26.0811 50.9971-27.4331 50.9971-29.563L50.9971-40.8169C50.9971-42.9468 49.645-44.2988 47.5825-44.2988L26.1309-44.2988C24.0684-44.2988 22.7163-42.9468 22.7163-40.8169L22.7163-29.563C22.7163-27.4331 24.0684-26.0811 26.1309-26.0811ZM61.2373-26.0811L82.6553-26.0811C84.7178-26.0811 86.0698-27.4331 86.0698-29.563L86.0698-40.8169C86.0698-42.9468 84.7178-44.2988 82.6553-44.2988L61.2373-44.2988C59.1411-44.2988 57.8228-42.9468 57.8228-40.8169L57.8228-29.563C57.8228-27.4331 59.1411-26.0811 61.2373-26.0811Z"/>
  </g>
  <g id="Thin-S" transform="matrix(1 0 0 1 802.177 696)">
   <path d="M20.3184-1.12108L88.1719-1.12108C95.1152-1.12108 98.7246-4.80077 98.7246-11.6328L98.7246-58.707C98.7246-65.5391 95.1152-69.2188 88.1719-69.2188L20.3184-69.2188C13.3887-69.2188 9.76562-65.6094 9.76562-58.707L9.76562-11.6328C9.76562-4.73046 13.3887-1.12108 20.3184-1.12108ZM20.416-4.43947C15.5996-4.43947 13.0703-6.92775 13.0703-11.7988L13.0703-58.541C13.0703-63.3984 15.5996-65.9004 20.416-65.9004L88.0742-65.9004C92.75-65.9004 95.4199-63.3984 95.4199-58.541L95.4199-11.7988C95.4199-6.92775 92.75-4.43947 88.0742-4.43947ZM24.8496-25.9609L47.1621-25.9609C49.3047-25.9609 50.6367-27.293 50.6367-29.4629L50.6367-40.877C50.6367-43.0469 49.3047-44.3789 47.1621-44.3789L24.8496-44.3789C22.7071-44.3789 21.375-43.0469 21.375-40.877L21.375-29.4629C21.375-27.293 22.7071-25.9609 24.8496-25.9609ZM61.1172-25.9609L83.416-25.9609C85.5586-25.9609 86.8906-27.293 86.8906-29.4629L86.8906-40.877C86.8906-43.0469 85.5586-44.3789 83.416-44.3789L61.1172-44.3789C58.9609-44.3789 57.6426-43.0469 57.6426-40.877L57.6426-29.4629C57.6426-27.293 58.9609-25.9609 61.1172-25.9609Z"/>
  </g>
  <g id="Ultralight-S" transform="matrix(1 0 0 1 505.702 696)">
   <path d="M19.7647-1.562L88.2539-1.562C94.7871-1.562 98.2529-5.11864 98.2529-11.5508L98.2529-58.7686C98.2529-65.2007 94.7871-68.7573 88.2539-68.7573L19.7647-68.7573C13.2349-68.7573 9.76562-65.2915 9.76562-58.7686L9.76562-11.5508C9.76562-5.02782 13.2349-1.562 19.7647-1.562ZM19.8623-3.78323C14.6665-3.78323 11.9834-6.45607 11.9834-11.6655L11.9834-58.6538C11.9834-63.8598 14.6665-66.5361 19.8623-66.5361L88.1562-66.5361C93.1704-66.5361 96.0351-63.8598 96.0351-58.6538L96.0351-11.6655C96.0351-6.45607 93.1704-3.78323 88.1562-3.78323ZM24.1934-25.8994L46.9468-25.8994C49.1304-25.8994 50.4522-27.2212 50.4522-29.4116L50.4522-40.9077C50.4522-43.0981 49.1304-44.4199 46.9468-44.4199L24.1934-44.4199C22.0098-44.4199 20.688-43.0981 20.688-40.9077L20.688-29.4116C20.688-27.2212 22.0098-25.8994 24.1934-25.8994ZM61.0557-25.8994L83.8057-25.8994C85.9892-25.8994 87.311-27.2212 87.311-29.4116L87.311-40.9077C87.311-43.0981 85.9892-44.4199 83.8057-44.4199L61.0557-44.4199C58.8687-44.4199 57.5503-43.0981 57.5503-40.9077L57.5503-29.4116C57.5503-27.2212 58.8687-25.8994 61.0557-25.8994Z"/>
  </g>
 </g>
</svg>
