<svg width="331" height="852" viewBox="0 0 331 852" fill="none" xmlns="http://www.w3.org/2000/svg">
<path fill-rule="evenodd" clip-rule="evenodd" d="M150 602C150.833 568.5 136.5 479.4 72.5 391C72.5 391 98.2679 405.817 126.939 415.128L93.5 407C117 426 155.9 530.9 161.5 586.5C163.833 589.833 170 594.5 176 586.5C181.5 532 215 419.5 238 406.5L206.958 414.207C234.823 404.577 259.5 390 259.5 390C205.5 453.2 187.5 558 185.5 602H150ZM176.338 421.809L206.958 414.207C196.828 417.708 186.278 420.554 176.338 421.809ZM176.338 421.809L165.5 424.5L153.233 421.518C157.792 422.176 162.246 422.532 166.5 422.5C169.683 422.476 172.975 422.234 176.338 421.809ZM153.233 421.518C144.628 420.276 135.649 417.956 126.939 415.128L153.233 421.518Z" fill="white"/>
<path d="M72.5 391L73.2477 389.7L71.285 391.88L72.5 391ZM150 602L148.5 601.963L148.462 603.5H150V602ZM93.5 407L93.8543 405.542L92.5569 408.166L93.5 407ZM161.5 586.5L160.008 586.65L160.047 587.04L160.271 587.36L161.5 586.5ZM176 586.5L177.2 587.4L177.45 587.066L177.492 586.651L176 586.5ZM238 406.5L238.738 407.806L237.639 405.044L238 406.5ZM259.5 390L260.64 390.974L258.737 388.709L259.5 390ZM185.5 602V603.5H186.933L186.998 602.068L185.5 602ZM165.5 424.5L165.146 425.958L165.504 426.045L165.861 425.956L165.5 424.5ZM166.5 422.5L166.511 424L166.511 424L166.5 422.5ZM71.285 391.88C135.087 480.007 149.326 568.783 148.5 601.963L151.5 602.037C152.341 568.217 137.913 478.793 73.715 390.12L71.285 391.88ZM127.402 413.701C113.155 409.074 99.6131 403.074 89.623 398.223C84.6307 395.799 80.5316 393.665 77.6827 392.139C76.2584 391.375 75.1468 390.764 74.3927 390.344C74.0157 390.134 73.728 389.972 73.5353 389.863C73.439 389.809 73.3664 389.767 73.3182 389.74C73.2941 389.726 73.2761 389.716 73.2644 389.709C73.2585 389.706 73.2541 389.703 73.2514 389.702C73.25 389.701 73.249 389.7 73.2484 389.7C73.2481 389.7 73.2479 389.7 73.2478 389.7C73.2477 389.7 73.2477 389.7 72.5 391C71.7523 392.3 71.7525 392.3 71.7528 392.301C71.7531 392.301 71.7535 392.301 71.754 392.301C71.7549 392.302 71.7563 392.303 71.758 392.304C71.7615 392.306 71.7666 392.309 71.7732 392.312C71.7864 392.32 71.8058 392.331 71.8314 392.346C71.8825 392.375 71.9581 392.418 72.0575 392.474C72.2562 392.587 72.5502 392.752 72.9337 392.966C73.7008 393.392 74.8263 394.011 76.2657 394.783C79.1442 396.325 83.2791 398.478 88.3126 400.922C98.3742 405.807 112.051 411.87 126.476 416.554L127.402 413.701ZM93.1457 408.458L126.585 416.585L127.293 413.67L93.8543 405.542L93.1457 408.458ZM162.992 586.35C160.174 558.365 149 518.102 135.617 482.497C128.92 464.683 121.655 447.991 114.579 434.545C107.538 421.166 100.58 410.796 94.4431 405.834L92.5569 408.166C98.1696 412.704 104.887 422.571 111.924 435.942C118.926 449.247 126.142 465.817 132.808 483.553C146.15 519.048 157.226 559.035 160.008 586.65L162.992 586.35ZM174.8 585.6C173.413 587.449 172.095 588.462 170.932 588.969C169.786 589.468 168.707 589.513 167.705 589.287C165.623 588.817 163.778 587.139 162.729 585.64L160.271 587.36C161.555 589.194 163.961 591.517 167.045 592.213C168.626 592.57 170.36 592.49 172.13 591.719C173.885 590.955 175.587 589.551 177.2 587.4L174.8 585.6ZM237.262 405.194C234.096 406.983 230.903 410.38 227.733 414.866C224.542 419.381 221.286 425.132 218.035 431.787C211.532 445.099 204.992 462.154 199.012 480.472C187.054 517.095 177.272 558.956 174.508 586.349L177.492 586.651C180.228 559.544 189.946 517.905 201.863 481.403C207.82 463.158 214.311 446.245 220.731 433.104C223.941 426.532 227.118 420.935 230.183 416.597C233.269 412.229 236.154 409.267 238.738 407.806L237.262 405.194ZM207.319 415.663L238.361 407.956L237.639 405.044L206.596 412.751L207.319 415.663ZM259.5 390C258.737 388.709 258.737 388.708 258.737 388.709C258.737 388.709 258.737 388.709 258.736 388.709C258.736 388.709 258.735 388.71 258.734 388.711C258.731 388.712 258.727 388.715 258.721 388.718C258.71 388.725 258.693 388.735 258.67 388.748C258.624 388.775 258.554 388.816 258.462 388.87C258.277 388.977 258.001 389.136 257.64 389.343C256.917 389.757 255.851 390.36 254.484 391.115C251.749 392.624 247.811 394.738 243.005 397.152C233.387 401.983 220.316 408.004 206.468 412.789L207.448 415.625C221.465 410.781 234.664 404.698 244.352 399.833C249.198 397.399 253.17 395.266 255.934 393.741C257.315 392.979 258.395 392.368 259.13 391.947C259.498 391.736 259.78 391.573 259.97 391.463C260.066 391.407 260.138 391.365 260.187 391.336C260.212 391.322 260.23 391.311 260.243 391.303C260.249 391.3 260.254 391.297 260.257 391.295C260.259 391.294 260.26 391.293 260.261 391.292C260.262 391.292 260.262 391.292 260.262 391.292C260.263 391.292 260.263 391.291 259.5 390ZM186.998 602.068C187.993 580.187 192.974 543.104 204.44 503.618C215.911 464.12 233.835 422.347 260.64 390.974L258.36 389.026C231.165 420.853 213.089 463.08 201.56 502.782C190.026 542.496 185.007 579.813 184.002 601.932L186.998 602.068ZM150 603.5H185.5V600.5H150V603.5ZM176.699 423.265L207.319 415.663L206.596 412.751L175.976 420.353L176.699 423.265ZM206.468 412.789C196.396 416.27 185.952 419.084 176.15 420.321L176.526 423.297C186.603 422.025 197.261 419.145 207.448 415.625L206.468 412.789ZM165.861 425.956L176.699 423.265L175.976 420.353L165.139 423.044L165.861 425.956ZM152.879 422.976L165.146 425.958L165.854 423.042L153.587 420.061L152.879 422.976ZM166.489 421C162.324 421.031 157.947 420.683 153.447 420.034L153.019 423.003C157.637 423.67 162.168 424.033 166.511 424L166.489 421ZM176.15 420.321C172.837 420.739 169.604 420.977 166.489 421L166.511 424C169.761 423.976 173.114 423.728 176.526 423.297L176.15 420.321ZM153.447 420.034C144.951 418.808 136.059 416.512 127.402 413.701L126.476 416.554C135.24 419.4 144.304 421.745 153.019 423.003L153.447 420.034ZM126.585 416.585L152.879 422.976L153.587 420.061L127.293 413.67L126.585 416.585Z" fill="black"/>
<mask id="path-3-inside-1_46_62" fill="white">
<path fill-rule="evenodd" clip-rule="evenodd" d="M165.5 430C256.903 430 331 333.741 331 215C331 96.2588 256.903 0 165.5 0C74.0969 0 0 96.2588 0 215C0 333.741 74.0969 430 165.5 430ZM165.5 415C250.276 415 319 325.681 319 215.5C319 105.319 250.276 16 165.5 16C80.7243 16 12 105.319 12 215.5C12 325.681 80.7243 415 165.5 415Z"/>
</mask>
<path fill-rule="evenodd" clip-rule="evenodd" d="M165.5 430C256.903 430 331 333.741 331 215C331 96.2588 256.903 0 165.5 0C74.0969 0 0 96.2588 0 215C0 333.741 74.0969 430 165.5 430ZM165.5 415C250.276 415 319 325.681 319 215.5C319 105.319 250.276 16 165.5 16C80.7243 16 12 105.319 12 215.5C12 325.681 80.7243 415 165.5 415Z" fill="white"/>
<path d="M328 215C328 332.861 254.564 427 165.5 427V433C259.242 433 334 334.621 334 215H328ZM165.5 3C254.564 3 328 97.1386 328 215H334C334 95.379 259.242 -3 165.5 -3V3ZM3 215C3 97.1386 76.4362 3 165.5 3V-3C71.7575 -3 -3 95.379 -3 215H3ZM165.5 427C76.4362 427 3 332.861 3 215H-3C-3 334.621 71.7575 433 165.5 433V427ZM316 215.5C316 324.802 247.935 412 165.5 412V418C252.616 418 322 326.559 322 215.5H316ZM165.5 19C247.935 19 316 106.198 316 215.5H322C322 104.441 252.616 13 165.5 13V19ZM15 215.5C15 106.198 83.0647 19 165.5 19V13C78.3839 13 9 104.441 9 215.5H15ZM165.5 412C83.0647 412 15 324.802 15 215.5H9C9 326.559 78.3839 418 165.5 418V412Z" fill="black" mask="url(#path-3-inside-1_46_62)"/>
<path d="M146.5 622L150 602.5H186L189.5 622L191 809L197.5 850H141.5L148.5 809L146.5 622Z" fill="white" stroke="black" stroke-width="3"/>
</svg>
